<svg width="30" height="30" viewBox="0 0 30 30" fill="none" xmlns="http://www.w3.org/2000/svg">
<circle cx="15" cy="15" r="15" fill="#408A7E"/>
<path d="M16.0936 23.2858C15.4291 23.7198 14.5709 23.7198 13.9064 23.2858L8.90642 20.0205C8.34091 19.6512 8 19.0214 8 18.346V10C8 8.89543 8.89543 8 10 8H20C21.1046 8 22 8.89543 22 10V18.346C22 19.0214 21.6591 19.6512 21.0936 20.0205L16.0936 23.2858ZM13.9064 21.3811C14.5709 21.815 15.4291 21.815 16.0936 21.3811L19.3436 19.2586C19.9091 18.8893 20.25 18.2595 20.25 17.5841V9.52381H9.75V17.5841C9.75 18.2595 10.0909 18.8893 10.6564 19.2586L13.9064 21.3811ZM15 9.52381H9.75H20.25H15Z" fill="white"/>
<path d="M13.5479 17L12 15.1206L12.3904 14.6549L13.5548 16.0686L13.9384 16.5343L13.5479 17ZM15.0959 17L13.5479 15.1206L13.9315 14.6466L15.0959 16.0603L17.6164 13L18 13.474L15.0959 17ZM15.0959 15.1206L14.7055 14.6549L16.0616 13.0083L16.4521 13.474L15.0959 15.1206Z" fill="white"/>
</svg>
