<svg width="29" height="29" viewBox="0 0 29 29" fill="none" xmlns="http://www.w3.org/2000/svg">
<g filter="url(#filter0_i_1375_15)">
<rect width="29" height="29" rx="8" fill="white"/>
</g>
<path d="M21.8745 13.5929C21.8164 13.5079 20.4311 11.49 18.5194 10.1107C17.5282 9.39429 16.278 9 14.9998 9C13.7223 9 12.4721 9.39429 11.4788 10.1107C9.5671 11.49 8.18319 13.5079 8.12509 13.5929C8.04365 13.7125 8 13.8547 8 14.0004C8 14.146 8.04365 14.2882 8.12509 14.4079C8.18319 14.4929 9.5671 16.5107 11.4788 17.89C12.4721 18.6057 13.7223 19 14.9998 19C16.278 19 17.5282 18.6057 18.5194 17.8893C20.4311 16.51 21.8164 14.4921 21.8745 14.4071C21.9562 14.2877 22 14.1456 22 14C22 13.8544 21.9562 13.7123 21.8745 13.5929ZM14.9998 16.5C13.646 16.5 12.5498 15.3786 12.5498 14C12.5498 12.6186 13.646 11.5 14.9998 11.5C16.3508 11.5 17.4498 12.6186 17.4498 14C17.4498 15.3786 16.3508 16.5 14.9998 16.5ZM16.3998 14C16.3998 14.7871 15.7712 15.4286 14.9998 15.4286C14.7229 15.4286 14.4522 15.3448 14.222 15.1878C13.9918 15.0308 13.8123 14.8077 13.7064 14.5467C13.6004 14.2857 13.5727 13.9984 13.6267 13.7213C13.6807 13.4442 13.8141 13.1896 14.0099 12.9898C14.2057 12.7901 14.4551 12.654 14.7267 12.5989C14.9983 12.5438 15.2798 12.572 15.5356 12.6802C15.7914 12.7883 16.01 12.9714 16.1639 13.2063C16.3177 13.4413 16.3998 13.7175 16.3998 14Z" fill="#6C6C6C"/>
<defs>
<filter id="filter0_i_1375_15" x="0" y="0" width="29" height="33" filterUnits="userSpaceOnUse" color-interpolation-filters="sRGB">
<feFlood flood-opacity="0" result="BackgroundImageFix"/>
<feBlend mode="normal" in="SourceGraphic" in2="BackgroundImageFix" result="shape"/>
<feColorMatrix in="SourceAlpha" type="matrix" values="0 0 0 0 0 0 0 0 0 0 0 0 0 0 0 0 0 0 127 0" result="hardAlpha"/>
<feOffset dy="4"/>
<feGaussianBlur stdDeviation="25"/>
<feComposite in2="hardAlpha" operator="arithmetic" k2="-1" k3="1"/>
<feColorMatrix type="matrix" values="0 0 0 0 0.6375 0 0 0 0 0.6375 0 0 0 0 0.6375 0 0 0 0.25 0"/>
<feBlend mode="normal" in2="shape" result="effect1_innerShadow_1375_15"/>
</filter>
</defs>
</svg>
