<svg width="30" height="30" viewBox="0 0 30 30" fill="none" xmlns="http://www.w3.org/2000/svg">
<circle cx="15" cy="15" r="15" fill="#408A7E"/>
<path d="M13.1147 17.1429L14.875 15.6101L16.6353 17.1429L17.5 16.3899L15.7397 14.8571L17.5 13.3244L16.6353 12.5714L14.875 14.1042L13.1147 12.5714L12.25 13.3244L14.0103 14.8571L12.25 16.3899L13.1147 17.1429Z" fill="white"/>
<path d="M16.0936 23.2858C15.4291 23.7198 14.5709 23.7198 13.9064 23.2858L8.90642 20.0205C8.34091 19.6512 8 19.0214 8 18.346V10C8 8.89543 8.89543 8 10 8H20C21.1046 8 22 8.89543 22 10V18.346C22 19.0214 21.6591 19.6512 21.0936 20.0205L16.0936 23.2858ZM13.9064 21.3811C14.5709 21.815 15.4291 21.815 16.0936 21.3811L19.3436 19.2586C19.9091 18.8893 20.25 18.2595 20.25 17.5841V9.52381H9.75V17.5841C9.75 18.2595 10.0909 18.8893 10.6564 19.2586L13.9064 21.3811ZM15 9.52381H9.75H20.25H15Z" fill="white"/>
</svg>
