<svg width="30" height="30" viewBox="0 0 30 30" fill="none" xmlns="http://www.w3.org/2000/svg">
<circle cx="15" cy="15" r="15" fill="#408A7E"/>
<path d="M18.8044 15.0208C18.7717 14.9755 17.9925 13.8993 16.9172 13.1637C16.3596 12.7816 15.6564 12.5713 14.9374 12.5713C14.2188 12.5713 13.5156 12.7816 12.9568 13.1637C11.8815 13.8993 11.103 14.9755 11.0704 15.0208C11.0246 15.0846 11 15.1605 11 15.2381C11 15.3158 11.0246 15.3917 11.0704 15.4555C11.103 15.5008 11.8815 16.577 12.9568 17.3126C13.5156 17.6943 14.2188 17.9046 14.9374 17.9046C15.6564 17.9046 16.3596 17.6943 16.9172 17.3122C17.9925 16.5766 18.7717 15.5004 18.8044 15.4551C18.8504 15.3914 18.875 15.3156 18.875 15.238C18.875 15.1603 18.8504 15.0845 18.8044 15.0208ZM14.9374 16.5713C14.1759 16.5713 13.5593 15.9732 13.5593 15.238C13.5593 14.5012 14.1759 13.9046 14.9374 13.9046C15.6973 13.9046 16.3155 14.5012 16.3155 15.238C16.3155 15.9732 15.6973 16.5713 14.9374 16.5713ZM15.7249 15.238C15.7249 15.6578 15.3713 15.9999 14.9374 15.9999C14.7816 15.9999 14.6294 15.9552 14.4999 15.8715C14.3704 15.7877 14.2694 15.6687 14.2098 15.5295C14.1502 15.3903 14.1346 15.2371 14.165 15.0893C14.1954 14.9415 14.2704 14.8058 14.3805 14.6992C14.4907 14.5927 14.631 14.5201 14.7838 14.4907C14.9365 14.4613 15.0949 14.4764 15.2388 14.534C15.3827 14.5917 15.5056 14.6894 15.5922 14.8147C15.6787 14.94 15.7249 15.0873 15.7249 15.238Z" fill="white"/>
<path d="M15.5409 23.3655C14.9017 23.7552 14.0983 23.7552 13.4591 23.3655L7.95907 20.0132C7.36344 19.6501 7 19.0029 7 18.3054V10C7 8.89543 7.89543 8 9 8H20C21.1046 8 22 8.89543 22 10V18.3054C22 19.0029 21.6366 19.6501 21.0409 20.0132L15.5409 23.3655ZM13.4591 21.4608C14.0983 21.8504 14.9017 21.8504 15.5409 21.4608L19.1659 19.2512C19.7616 18.8882 20.125 18.241 20.125 17.5435V9.52381H8.875V17.5435C8.875 18.241 9.23844 18.8882 9.83407 19.2512L13.4591 21.4608ZM14.5 9.52381H8.875H20.125H14.5Z" fill="white"/>
</svg>
