<svg width="30" height="30" viewBox="0 0 30 30" fill="none" xmlns="http://www.w3.org/2000/svg">
<circle cx="15" cy="15" r="15" fill="#408A7E"/>
<path d="M16.0936 23.2857C15.4291 23.7197 14.5709 23.7197 13.9064 23.2857L8.90642 20.0204C8.34091 19.6511 8 19.0213 8 18.3459V9.9999C8 8.89533 8.89543 7.99989 10 7.99989H20C21.1046 7.99989 22 8.89532 22 9.99989V18.3459C22 19.0213 21.6591 19.6511 21.0936 20.0204L16.0936 23.2857ZM13.9064 21.381C14.5709 21.8149 15.4291 21.8149 16.0936 21.381L19.3436 19.2585C19.9091 18.8892 20.25 18.2594 20.25 17.584V9.5237H9.75V17.584C9.75 18.2594 10.0909 18.8892 10.6564 19.2585L13.9064 21.381ZM15 9.5237H9.75H20.25H15Z" fill="white"/>
<path d="M15.2321 14.4415C15.5409 14.4415 15.8282 14.5176 16.0941 14.6697C16.36 14.8223 16.5787 15.0233 16.7502 15.2726H16.4415C16.2957 15.2726 16.1735 15.3256 16.075 15.4317C15.9762 15.538 15.9268 15.6697 15.9268 15.8267C15.9268 15.9837 15.9762 16.1152 16.075 16.2213C16.1735 16.3277 16.2957 16.3808 16.4415 16.3808H17.9854C18.1312 16.3808 18.2533 16.3277 18.3518 16.2213C18.4506 16.1152 18.5 15.9837 18.5 15.8267V14.1644C18.5 14.0074 18.4506 13.8757 18.3518 13.7693C18.2533 13.6633 18.1312 13.6103 17.9854 13.6103C17.8396 13.6103 17.7174 13.6633 17.6189 13.7693C17.5201 13.8757 17.4707 14.0074 17.4707 14.1644V14.4692C17.1963 14.1182 16.8683 13.8412 16.4868 13.638C16.1049 13.4348 15.6867 13.3332 15.2321 13.3332C14.5202 13.3332 13.9047 13.5619 13.3856 14.0192C12.8668 14.4762 12.5345 15.051 12.3887 15.7436C12.3544 15.9099 12.3844 16.0576 12.4788 16.1869C12.5731 16.3162 12.6932 16.3808 12.839 16.3808C12.9677 16.3808 13.0857 16.3393 13.1931 16.2562C13.3001 16.1731 13.3708 16.0669 13.4051 15.9376C13.4995 15.5035 13.7161 15.1455 14.0551 14.8637C14.3937 14.5822 14.7861 14.4415 15.2321 14.4415Z" fill="white"/>
</svg>
