<svg
  width="18"
  height="16"
  viewBox="0 0 16 14"
  fill="none"
  xmlns="http://www.w3.org/2000/svg"
>
  <path
    d="M12.6 11.8417L8.86667 8.575C8.53333 8.80834 8.15 8.99306 7.71667 9.12917C7.28333 9.26528 6.82222 9.33334 6.33333 9.33334C5.12222 9.33334 4.09733 8.96642 3.25867 8.23258C2.41956 7.49836 2 6.60139 2 5.54167C2 4.48195 2.41956 3.58497 3.25867 2.85075C4.09733 2.11692 5.12222 1.75 6.33333 1.75C7.54444 1.75 8.56956 2.11692 9.40867 2.85075C10.2473 3.58497 10.6667 4.48195 10.6667 5.54167C10.6667 5.96945 10.5889 6.37292 10.4333 6.75208C10.2778 7.13125 10.0667 7.46667 9.8 7.75834L13.55 11.0396C13.6722 11.1465 13.7333 11.2778 13.7333 11.4333C13.7333 11.5889 13.6667 11.725 13.5333 11.8417C13.4111 11.9486 13.2556 12.0021 13.0667 12.0021C12.8778 12.0021 12.7222 11.9486 12.6 11.8417ZM6.33333 8.16667C7.16667 8.16667 7.87511 7.91156 8.45867 7.40133C9.04178 6.89072 9.33333 6.27083 9.33333 5.54167C9.33333 4.8125 9.04178 4.19261 8.45867 3.682C7.87511 3.17178 7.16667 2.91667 6.33333 2.91667C5.5 2.91667 4.79156 3.17178 4.208 3.682C3.62489 4.19261 3.33333 4.8125 3.33333 5.54167C3.33333 6.27083 3.62489 6.89072 4.208 7.40133C4.79156 7.91156 5.5 8.16667 6.33333 8.16667Z"
    fill="#408A7E"
  />
</svg>