<svg width="30" height="30" viewBox="0 0 30 30" fill="none" xmlns="http://www.w3.org/2000/svg">
<circle cx="15" cy="15" r="15" fill="#408A7E"/>
<path d="M16.0936 23.2858C15.4291 23.7198 14.5709 23.7198 13.9064 23.2858L8.90642 20.0205C8.34091 19.6512 8 19.0214 8 18.346V10C8 8.89543 8.89543 8 10 8H20C21.1046 8 22 8.89543 22 10V18.346C22 19.0214 21.6591 19.6512 21.0936 20.0205L16.0936 23.2858ZM13.9064 21.3811C14.5709 21.815 15.4291 21.815 16.0936 21.3811L19.3436 19.2586C19.9091 18.8893 20.25 18.2595 20.25 17.5841V9.52381H9.75V17.5841C9.75 18.2595 10.0909 18.8893 10.6564 19.2586L13.9064 21.3811ZM15 9.52381H9.75H20.25H15Z" fill="white"/>
<path d="M14.4632 17.1429C14.4103 17.1429 14.3607 17.1357 14.3144 17.1214C14.2682 17.1073 14.2252 17.0832 14.1855 17.0491L12.4795 15.5833C12.4068 15.5208 12.372 15.4397 12.3752 15.3402C12.3786 15.2409 12.4167 15.16 12.4895 15.0975C12.5622 15.035 12.6548 15.0037 12.7672 15.0037C12.8796 15.0037 12.9722 15.035 13.0449 15.0975L14.4632 16.3162L17.8255 13.4271C17.8983 13.3646 17.9926 13.3333 18.1084 13.3333C18.224 13.3333 18.3182 13.3646 18.3909 13.4271C18.4636 13.4896 18.5 13.5705 18.5 13.6698C18.5 13.7693 18.4636 13.8504 18.3909 13.9129L14.7409 17.0491C14.7013 17.0832 14.6583 17.1073 14.612 17.1214C14.5657 17.1357 14.5161 17.1429 14.4632 17.1429Z" fill="white"/>
</svg>
