<svg width="37" height="38" viewBox="0 0 37 38" fill="none" xmlns="http://www.w3.org/2000/svg">
<path d="M19.1001 4.58932C10.4301 4.47231 3.3521 11.5448 3.46921 20.208C3.58483 28.5166 10.3552 35.2817 18.6702 35.3972C27.3417 35.5157 34.4182 28.4432 34.2996 19.78C34.1855 11.47 27.4151 4.70485 19.1001 4.58932ZM17.8557 18.8432L21.6763 14.4738C21.8833 14.2371 22.1759 14.0923 22.4898 14.0712C22.8036 14.0501 23.113 14.1544 23.3499 14.3612C23.5867 14.568 23.7317 14.8604 23.7528 15.174C23.7739 15.4876 23.6695 15.7967 23.4625 16.0334L19.6419 20.4028C19.5394 20.52 19.4148 20.6159 19.2752 20.685C19.1357 20.754 18.9839 20.795 18.8285 20.8054C18.673 20.8159 18.5171 20.7956 18.3695 20.7459C18.222 20.6961 18.0856 20.6178 17.9684 20.5154C17.8511 20.413 17.7551 20.2885 17.686 20.149C17.6169 20.0096 17.5759 19.8579 17.5654 19.7026C17.555 19.5473 17.5752 19.3915 17.625 19.244C17.6748 19.0966 17.7532 18.9604 17.8557 18.8432ZM14.9756 25.5713C14.7532 25.7933 14.4517 25.9181 14.1373 25.9181C13.823 25.9181 13.5215 25.7933 13.2991 25.5713L9.74528 22.0165C9.6352 21.9064 9.5479 21.7758 9.48836 21.632C9.42882 21.4882 9.39822 21.334 9.39828 21.1784C9.39835 21.0228 9.4291 20.8687 9.48876 20.725C9.54843 20.5812 9.63584 20.4506 9.74602 20.3406C9.8562 20.2306 9.98698 20.1434 10.1309 20.0839C10.2748 20.0244 10.429 19.9938 10.5848 19.9939C10.7405 19.994 10.8947 20.0247 11.0386 20.0843C11.1825 20.1439 11.3132 20.2313 11.4232 20.3413L14.9808 23.8961C15.2023 24.119 15.3262 24.4206 15.3252 24.7348C15.3243 25.0489 15.1985 25.3498 14.9756 25.5713ZM28.0791 16.0334L19.7871 25.5128C19.6803 25.6351 19.5495 25.7342 19.4027 25.8039C19.256 25.8735 19.0965 25.9123 18.9341 25.9179H18.8941C18.7382 25.9179 18.5839 25.8872 18.44 25.8276C18.296 25.768 18.1652 25.6807 18.0551 25.5705L14.502 22.0158C14.2797 21.7934 14.1549 21.492 14.155 21.1777C14.1551 20.8634 14.2802 20.562 14.5027 20.3399C14.7252 20.1177 15.027 19.993 15.3415 19.9931C15.656 19.9933 15.9576 20.1183 16.18 20.3406L18.3886 22.5497C18.446 22.6071 18.5146 22.6521 18.5901 22.6819C18.6657 22.7117 18.7465 22.7257 18.8277 22.723C18.9089 22.7203 18.9886 22.701 19.062 22.6662C19.1354 22.6314 19.2008 22.5819 19.2543 22.5209L26.2952 14.4738C26.5022 14.2371 26.7948 14.0923 27.1086 14.0712C27.4225 14.0501 27.7319 14.1544 27.9687 14.3612C28.2056 14.568 28.3505 14.8604 28.3716 15.174C28.3928 15.4876 28.2884 15.7967 28.0814 16.0334H28.0791Z" fill="#408A7E"/>
</svg>
