<svg width="30" height="30" viewBox="0 0 30 30" fill="none" xmlns="http://www.w3.org/2000/svg">
<circle cx="15" cy="15" r="15" fill="#408A7E"/>
<path d="M20.75 16.375V14.625H24.25V16.375H20.75ZM21.8 22.5L19 20.4L20.05 19L22.85 21.1L21.8 22.5ZM20.05 12L19 10.6L21.8 8.5L22.85 9.9L20.05 12ZM9.375 21.625V18.125H8.5C8.01875 18.125 7.60692 17.9535 7.2645 17.6105C6.9215 17.2681 6.75 16.8563 6.75 16.375V14.625C6.75 14.1438 6.9215 13.7316 7.2645 13.3886C7.60692 13.0462 8.01875 12.875 8.5 12.875H12L16.375 10.25V20.75L12 18.125H11.125V21.625H9.375ZM17.25 18.4313V12.5687C17.6438 12.9187 17.9611 13.3455 18.202 13.8489C18.4423 14.3517 18.5625 14.9021 18.5625 15.5C18.5625 16.0979 18.4423 16.6483 18.202 17.1511C17.9611 17.6545 17.6438 18.0813 17.25 18.4313ZM8.5 14.625V16.375H12.4813L14.625 17.6438V13.3563L12.4813 14.625H8.5Z" fill="white"/>
</svg>
