<svg width="228" height="56" viewBox="0 0 228 56" fill="none" xmlns="http://www.w3.org/2000/svg">
<g clip-path="url(#clip0_464_3)">
<path fill-rule="evenodd" clip-rule="evenodd" d="M22.6592 4.45996H37.1592C39.1473 4.46098 41.0536 5.19869 42.4592 6.51096L52.7117 16.0776C53.4085 16.7278 53.9612 17.4997 54.3382 18.3492C54.7153 19.1988 54.9093 20.1094 54.9092 21.029V34.5576C54.9093 35.4772 54.7153 36.3878 54.3382 37.2373C53.9612 38.0869 53.4085 38.8588 52.7117 39.509L42.4617 49.0756C41.7651 49.726 40.9381 50.2418 40.0278 50.5937C39.1176 50.9457 38.1419 51.1267 37.1567 51.1266H22.6617C21.6764 51.1267 20.7008 50.9457 19.7905 50.5937C18.8803 50.2418 18.0533 49.726 17.3567 49.0756L7.10668 39.509C6.40989 38.8588 5.85718 38.0869 5.48013 37.2373C5.10307 36.3878 4.90906 35.4772 4.90918 34.5576V21.029C4.90906 20.1094 5.10307 19.1988 5.48013 18.3492C5.85718 17.4997 6.40989 16.7278 7.10668 16.0776L17.3567 6.51096C18.0533 5.86063 18.8803 5.34476 19.7905 4.99285C20.7008 4.64093 21.6739 4.45985 22.6592 4.45996Z" fill="#408A7E"/>
</g>
<path d="M41.1207 23.828C40.7246 24.0212 40.3239 24.0459 39.9187 23.902C39.5135 23.7582 39.2107 23.4838 39.0104 23.0788C38.8086 22.6733 38.7735 22.2677 38.9052 21.8621C39.0369 21.4564 39.3006 21.1577 39.6963 20.9659L42.4925 19.6021C42.8886 19.4089 43.2893 19.3843 43.6945 19.5281C44.0997 19.672 44.4025 19.9464 44.6028 20.3513C44.8046 20.7568 44.8397 21.1624 44.708 21.5681C44.5763 21.9738 44.3126 22.2725 43.9169 22.4643L41.1207 23.828ZM44.84 33.3959L41.7483 32.7696C41.3034 32.6902 40.9627 32.4711 40.7262 32.1122C40.4896 31.7533 40.4048 31.3501 40.4716 30.9025C40.5385 30.4549 40.7464 30.1164 41.0955 29.8869C41.4446 29.6573 41.8416 29.5823 42.2865 29.6617L45.3782 30.288C45.8231 30.3674 46.1639 30.5865 46.4004 30.9454C46.6369 31.3043 46.7218 31.7075 46.6549 32.1551C46.5881 32.6027 46.3801 32.9412 46.031 33.1707C45.6819 33.4003 45.2849 33.4753 44.84 33.3959ZM35.7342 16.4959C35.5266 16.8935 35.2246 17.1594 34.828 17.2935C34.4315 17.4276 34.0336 17.3846 33.6344 17.1643C33.2352 16.944 32.9639 16.6317 32.8206 16.2274C32.6773 15.823 32.7094 15.422 32.9169 15.0244L34.2992 12.2162C34.5067 11.8186 34.8088 11.5527 35.2054 11.4186C35.6019 11.2844 35.9998 11.3275 36.399 11.5478C36.7982 11.7681 37.0695 12.0804 37.2128 12.4847C37.3561 12.8891 37.324 13.29 37.1165 13.6876L35.7342 16.4959ZM25.8203 41.9605L22.9714 36.2362L21.5733 36.9181C20.8044 37.2931 20.0063 37.3338 19.179 37.0401C18.3518 36.7464 17.743 36.2062 17.3527 35.4197L15.9282 32.5575C15.5365 31.7704 15.4751 30.9628 15.744 30.1345C16.0128 29.3062 16.5315 28.7053 17.3 28.3317L22.8925 25.6042L26.2553 20.2295C26.5789 19.716 27.0506 19.486 27.6702 19.5395C28.2899 19.5929 28.7367 19.8937 29.0107 20.4419L35.0289 32.5344C35.3019 33.0829 35.2705 33.6169 34.9348 34.1363C34.5991 34.6557 34.1275 34.8858 33.5199 34.8264L27.1658 34.1906L25.7677 34.8725L28.6165 40.5967L25.8203 41.9605ZM35.8038 30.6003L31.032 21.0122C31.946 21.2778 32.8004 21.7284 33.5951 22.364C34.3898 22.9996 35.0298 23.8061 35.5151 24.7834C36.0017 25.7613 36.2575 26.7558 36.2823 27.7669C36.3071 28.778 36.1476 29.7225 35.8038 30.6003Z" fill="white"/>
<path d="M76.9219 29.4062C76.9219 28.6562 76.8698 25.224 76.7656 19.1094C76.7344 18.8698 76.6094 18.6667 76.3906 18.5C76.1823 18.3229 75.875 18.1875 75.4688 18.0938C75.0625 18 74.7292 17.9323 74.4688 17.8906C74.2188 17.849 73.8646 17.8073 73.4062 17.7656C73.3646 17.5781 73.3438 17.4479 73.3438 17.375C73.3438 17.3125 73.3646 17.1979 73.4062 17.0312C73.6771 17.0417 74.3229 17.0677 75.3438 17.1094C76.3646 17.1406 77.151 17.1562 77.7031 17.1562C78.1719 17.1562 79.0573 17.1354 80.3594 17.0938C81.6615 17.0521 82.599 17.0312 83.1719 17.0312C85.8385 17.0312 87.875 17.651 89.2812 18.8906C90.6875 20.1302 91.3906 21.7812 91.3906 23.8438C91.3906 25.8021 90.7604 27.401 89.5 28.6406C88.2396 29.8802 86.4479 30.5 84.125 30.5C82.7292 30.5 81.474 30.2083 80.3594 29.625C80.3594 32.1667 80.3906 34.9115 80.4531 37.8594C80.4635 38.1302 80.5833 38.3646 80.8125 38.5625C81.0417 38.75 81.3698 38.8958 81.7969 39C82.2344 39.1042 82.599 39.1823 82.8906 39.2344C83.1927 39.276 83.5833 39.3177 84.0625 39.3594C84.1042 39.5677 84.125 39.7083 84.125 39.7812C84.125 39.8646 84.1042 39.9688 84.0625 40.0938C82.2917 40.0312 80.4792 40 78.625 40C76.75 40 74.9375 40.0312 73.1875 40.0938C73.1458 39.9688 73.125 39.8646 73.125 39.7812C73.125 39.6042 73.1458 39.4635 73.1875 39.3594C73.6667 39.3177 74.0521 39.276 74.3438 39.2344C74.6458 39.1823 75.0104 39.1042 75.4375 39C75.875 38.8958 76.2083 38.75 76.4375 38.5625C76.6667 38.3646 76.7865 38.1302 76.7969 37.8594C76.8802 35.1823 76.9219 32.3646 76.9219 29.4062ZM80.4531 18.1094C80.3906 21.8594 80.3594 25.349 80.3594 28.5781C81.2135 28.9635 82.0625 29.1562 82.9062 29.1562C84.375 29.1562 85.4792 28.6823 86.2188 27.7344C86.9583 26.7865 87.3281 25.4792 87.3281 23.8125C87.3281 19.9688 85.4271 18.0469 81.625 18.0469C81.3854 18.0469 80.9948 18.0677 80.4531 18.1094ZM93.7188 27.1406C95.7396 26.9323 97.5 26.5052 99 25.8594C99.2604 25.9635 99.4427 26.099 99.5469 26.2656V28.9531C99.9323 28.224 100.505 27.5156 101.266 26.8281C102.036 26.1406 102.839 25.7969 103.672 25.7969C104.297 25.7969 104.802 25.9844 105.188 26.3594C105.583 26.724 105.781 27.2292 105.781 27.875C105.781 28.4896 105.599 28.9688 105.234 29.3125C104.87 29.6562 104.411 29.8281 103.859 29.8281C103.349 29.8281 102.927 29.6667 102.594 29.3438C102.271 29.0104 102.094 28.5729 102.062 28.0312C101.625 28.2188 101.125 28.6354 100.562 29.2812C100.01 29.9271 99.6719 30.5677 99.5469 31.2031C99.5469 33.526 99.5885 35.7448 99.6719 37.8594C99.6823 38.1302 99.7812 38.3646 99.9688 38.5625C100.156 38.75 100.432 38.8958 100.797 39C101.161 39.1042 101.464 39.1823 101.703 39.2344C101.943 39.276 102.255 39.3177 102.641 39.3594C102.703 39.4844 102.734 39.6146 102.734 39.75C102.734 39.8542 102.703 39.9688 102.641 40.0938C101.078 40.0312 99.5312 40 98 40C96.7292 40 95.4062 40.0312 94.0312 40.0938C93.9896 39.9271 93.9688 39.8125 93.9688 39.75C93.9688 39.6979 93.9896 39.5677 94.0312 39.3594C94.375 39.3177 94.6562 39.276 94.875 39.2344C95.0938 39.1823 95.3646 39.1042 95.6875 39C96.0104 38.8958 96.2552 38.75 96.4219 38.5625C96.5885 38.3646 96.6771 38.1302 96.6875 37.8594C96.7292 36.8281 96.75 35.5781 96.75 34.1094C96.75 33.6198 96.7448 32.7865 96.7344 31.6094C96.724 30.4323 96.7188 29.401 96.7188 28.5156C96.125 28.151 95.125 27.9375 93.7188 27.875C93.6771 27.7083 93.6562 27.5781 93.6562 27.4844C93.6562 27.4219 93.6771 27.3073 93.7188 27.1406ZM109.25 29.7344C109.25 28.5885 109.771 27.6458 110.812 26.9062C111.865 26.1667 113.104 25.7969 114.531 25.7969C116.281 25.7969 117.51 26.1458 118.219 26.8438C118.938 27.5417 119.297 28.7188 119.297 30.375V36.8594C119.297 37.4427 119.51 37.7344 119.938 37.7344C120.281 37.7344 120.719 37.3177 121.25 36.4844C121.625 36.5156 121.88 36.6823 122.016 36.9844C121.943 37.0885 121.818 37.276 121.641 37.5469C121.464 37.8177 121.333 38.0104 121.25 38.125C121.167 38.2396 121.036 38.4167 120.859 38.6562C120.682 38.8854 120.536 39.0573 120.422 39.1719C120.318 39.2865 120.172 39.4219 119.984 39.5781C119.807 39.7344 119.641 39.8542 119.484 39.9375C119.339 40.0104 119.167 40.0729 118.969 40.125C118.771 40.1875 118.573 40.2188 118.375 40.2188C117.854 40.2188 117.422 40.0312 117.078 39.6562C116.745 39.2812 116.547 38.7031 116.484 37.9219C116.474 37.9323 116.312 38.0833 116 38.375C115.688 38.6667 115.469 38.8646 115.344 38.9688C115.229 39.0625 115.005 39.2344 114.672 39.4844C114.349 39.724 114.073 39.8958 113.844 40C113.615 40.1042 113.328 40.2031 112.984 40.2969C112.641 40.401 112.302 40.4531 111.969 40.4531C111.438 40.4531 110.964 40.3802 110.547 40.2344C110.141 40.0885 109.823 39.9115 109.594 39.7031C109.365 39.4948 109.177 39.2552 109.031 38.9844C108.885 38.7031 108.786 38.4479 108.734 38.2188C108.693 37.9896 108.672 37.7604 108.672 37.5312C108.672 36.8333 108.786 36.2448 109.016 35.7656C109.255 35.2865 109.693 34.8385 110.328 34.4219C110.974 34.0052 111.766 33.6354 112.703 33.3125C113.641 32.9896 114.901 32.625 116.484 32.2188V30.0469C116.484 28.9948 116.25 28.2083 115.781 27.6875C115.323 27.1667 114.703 26.9062 113.922 26.9062C113.224 26.9062 112.635 27.0469 112.156 27.3281C111.688 27.599 111.401 27.9167 111.297 28.2812C112.318 28.4375 112.828 28.9948 112.828 29.9531C112.828 30.3906 112.672 30.776 112.359 31.1094C112.047 31.4427 111.609 31.6094 111.047 31.6094C110.578 31.6094 110.161 31.4479 109.797 31.125C109.432 30.7917 109.25 30.3281 109.25 29.7344ZM116.484 36.4844V33.2188C115.526 33.4375 114.734 33.6771 114.109 33.9375C113.484 34.1875 113.005 34.4635 112.672 34.7656C112.349 35.0677 112.125 35.3802 112 35.7031C111.875 36.0156 111.812 36.3802 111.812 36.7969C111.812 37.3177 111.964 37.7292 112.266 38.0312C112.578 38.3229 112.958 38.4688 113.406 38.4688C114.448 38.4688 115.474 37.8073 116.484 36.4844ZM136.609 35.9375C136.859 35.9896 137.062 36.1042 137.219 36.2812C136.698 37.6771 135.891 38.724 134.797 39.4219C133.703 40.1094 132.516 40.4531 131.234 40.4531C130.599 40.4531 129.979 40.3698 129.375 40.2031C128.771 40.0469 128.182 39.7865 127.609 39.4219C127.047 39.0573 126.552 38.6094 126.125 38.0781C125.708 37.5365 125.37 36.8646 125.109 36.0625C124.859 35.25 124.734 34.3542 124.734 33.375C124.734 31.1146 125.427 29.2865 126.812 27.8906C128.198 26.4948 129.927 25.7969 132 25.7969C133.458 25.7969 134.646 26.1146 135.562 26.75C136.49 27.375 136.953 28.1771 136.953 29.1562C136.953 29.7083 136.771 30.1667 136.406 30.5312C136.042 30.8958 135.594 31.0781 135.062 31.0781C134.5 31.0781 134.047 30.9167 133.703 30.5938C133.359 30.2604 133.188 29.875 133.188 29.4375C133.188 28.6458 133.589 28.1458 134.391 27.9375C134.318 27.6979 134.083 27.4531 133.688 27.2031C133.292 26.9427 132.729 26.8125 132 26.8125C131.625 26.8125 131.271 26.8594 130.938 26.9531C130.604 27.0365 130.245 27.2188 129.859 27.5C129.484 27.7812 129.161 28.151 128.891 28.6094C128.63 29.0677 128.411 29.7083 128.234 30.5312C128.057 31.3438 127.969 32.2917 127.969 33.375C127.969 34.1042 128.042 34.7656 128.188 35.3594C128.344 35.9531 128.583 36.4896 128.906 36.9688C129.229 37.4479 129.672 37.8229 130.234 38.0938C130.797 38.3646 131.458 38.5 132.219 38.5C132.698 38.5 133.151 38.4375 133.578 38.3125C134.005 38.1771 134.349 38.0365 134.609 37.8906C134.88 37.7448 135.167 37.526 135.469 37.2344C135.781 36.9323 135.99 36.7188 136.094 36.5938C136.198 36.4583 136.37 36.2396 136.609 35.9375ZM139.219 17.5312C141.198 17.3438 142.953 16.9167 144.484 16.25C144.766 16.3646 144.948 16.5052 145.031 16.6719V28.6719C146.062 27.7969 147.031 27.099 147.938 26.5781C148.844 26.0573 149.766 25.7969 150.703 25.7969C151.88 25.7969 152.719 26.1302 153.219 26.7969C153.719 27.4635 153.979 28.5052 154 29.9219L154.125 37.8594C154.135 38.1302 154.214 38.3646 154.359 38.5625C154.516 38.75 154.734 38.8958 155.016 39C155.297 39.1042 155.531 39.1823 155.719 39.2344C155.906 39.276 156.151 39.3177 156.453 39.3594C156.505 39.6198 156.531 39.7604 156.531 39.7812C156.531 39.8333 156.505 39.9375 156.453 40.0938C155.109 40.0312 153.885 40 152.781 40C151.667 40 150.438 40.0312 149.094 40.0938C149.052 39.9271 149.031 39.8021 149.031 39.7188C149.031 39.6458 149.052 39.526 149.094 39.3594C149.365 39.3177 149.589 39.276 149.766 39.2344C149.953 39.1823 150.161 39.1042 150.391 39C150.63 38.8958 150.807 38.75 150.922 38.5625C151.047 38.3646 151.109 38.1302 151.109 37.8594L151.141 30.4375C151.141 28.5521 150.578 27.6094 149.453 27.6094C148.401 27.6094 146.927 28.2917 145.031 29.6562C145.073 33.9896 145.115 36.724 145.156 37.8594C145.167 38.0781 145.229 38.276 145.344 38.4531C145.469 38.6198 145.604 38.7552 145.75 38.8594C145.896 38.9531 146.094 39.0417 146.344 39.125C146.594 39.1979 146.786 39.25 146.922 39.2812C147.068 39.3021 147.26 39.3281 147.5 39.3594C147.562 39.4844 147.594 39.6146 147.594 39.75C147.594 39.8854 147.562 40 147.5 40.0938C146.125 40.0312 144.792 40 143.5 40C142.229 40 140.906 40.0312 139.531 40.0938C139.49 39.9271 139.469 39.8125 139.469 39.75C139.469 39.6979 139.49 39.5677 139.531 39.3594C139.875 39.3177 140.151 39.276 140.359 39.2344C140.578 39.1823 140.849 39.1042 141.172 39C141.505 38.8958 141.755 38.75 141.922 38.5625C142.089 38.3646 142.177 38.1302 142.188 37.8594C142.229 36.8281 142.25 34.5208 142.25 30.9375C142.25 29.2812 142.245 27.026 142.234 24.1719C142.224 21.3177 142.219 19.5625 142.219 18.9062C141.625 18.5625 140.625 18.349 139.219 18.2656C139.167 18.1302 139.141 18.0052 139.141 17.8906C139.141 17.7865 139.167 17.6667 139.219 17.5312ZM160 29.7344C160 28.5885 160.521 27.6458 161.562 26.9062C162.615 26.1667 163.854 25.7969 165.281 25.7969C167.031 25.7969 168.26 26.1458 168.969 26.8438C169.688 27.5417 170.047 28.7188 170.047 30.375V36.8594C170.047 37.4427 170.26 37.7344 170.688 37.7344C171.031 37.7344 171.469 37.3177 172 36.4844C172.375 36.5156 172.63 36.6823 172.766 36.9844C172.693 37.0885 172.568 37.276 172.391 37.5469C172.214 37.8177 172.083 38.0104 172 38.125C171.917 38.2396 171.786 38.4167 171.609 38.6562C171.432 38.8854 171.286 39.0573 171.172 39.1719C171.068 39.2865 170.922 39.4219 170.734 39.5781C170.557 39.7344 170.391 39.8542 170.234 39.9375C170.089 40.0104 169.917 40.0729 169.719 40.125C169.521 40.1875 169.323 40.2188 169.125 40.2188C168.604 40.2188 168.172 40.0312 167.828 39.6562C167.495 39.2812 167.297 38.7031 167.234 37.9219C167.224 37.9323 167.062 38.0833 166.75 38.375C166.438 38.6667 166.219 38.8646 166.094 38.9688C165.979 39.0625 165.755 39.2344 165.422 39.4844C165.099 39.724 164.823 39.8958 164.594 40C164.365 40.1042 164.078 40.2031 163.734 40.2969C163.391 40.401 163.052 40.4531 162.719 40.4531C162.188 40.4531 161.714 40.3802 161.297 40.2344C160.891 40.0885 160.573 39.9115 160.344 39.7031C160.115 39.4948 159.927 39.2552 159.781 38.9844C159.635 38.7031 159.536 38.4479 159.484 38.2188C159.443 37.9896 159.422 37.7604 159.422 37.5312C159.422 36.8333 159.536 36.2448 159.766 35.7656C160.005 35.2865 160.443 34.8385 161.078 34.4219C161.724 34.0052 162.516 33.6354 163.453 33.3125C164.391 32.9896 165.651 32.625 167.234 32.2188V30.0469C167.234 28.9948 167 28.2083 166.531 27.6875C166.073 27.1667 165.453 26.9062 164.672 26.9062C163.974 26.9062 163.385 27.0469 162.906 27.3281C162.438 27.599 162.151 27.9167 162.047 28.2812C163.068 28.4375 163.578 28.9948 163.578 29.9531C163.578 30.3906 163.422 30.776 163.109 31.1094C162.797 31.4427 162.359 31.6094 161.797 31.6094C161.328 31.6094 160.911 31.4479 160.547 31.125C160.182 30.7917 160 30.3281 160 29.7344ZM167.234 36.4844V33.2188C166.276 33.4375 165.484 33.6771 164.859 33.9375C164.234 34.1875 163.755 34.4635 163.422 34.7656C163.099 35.0677 162.875 35.3802 162.75 35.7031C162.625 36.0156 162.562 36.3802 162.562 36.7969C162.562 37.3177 162.714 37.7292 163.016 38.0312C163.328 38.3229 163.708 38.4688 164.156 38.4688C165.198 38.4688 166.224 37.8073 167.234 36.4844ZM176.219 29.7344C176.219 28.5885 176.74 27.6458 177.781 26.9062C178.833 26.1667 180.073 25.7969 181.5 25.7969C183.25 25.7969 184.479 26.1458 185.188 26.8438C185.906 27.5417 186.266 28.7188 186.266 30.375V36.8594C186.266 37.4427 186.479 37.7344 186.906 37.7344C187.25 37.7344 187.688 37.3177 188.219 36.4844C188.594 36.5156 188.849 36.6823 188.984 36.9844C188.911 37.0885 188.786 37.276 188.609 37.5469C188.432 37.8177 188.302 38.0104 188.219 38.125C188.135 38.2396 188.005 38.4167 187.828 38.6562C187.651 38.8854 187.505 39.0573 187.391 39.1719C187.286 39.2865 187.141 39.4219 186.953 39.5781C186.776 39.7344 186.609 39.8542 186.453 39.9375C186.307 40.0104 186.135 40.0729 185.938 40.125C185.74 40.1875 185.542 40.2188 185.344 40.2188C184.823 40.2188 184.391 40.0312 184.047 39.6562C183.714 39.2812 183.516 38.7031 183.453 37.9219C183.443 37.9323 183.281 38.0833 182.969 38.375C182.656 38.6667 182.438 38.8646 182.312 38.9688C182.198 39.0625 181.974 39.2344 181.641 39.4844C181.318 39.724 181.042 39.8958 180.812 40C180.583 40.1042 180.297 40.2031 179.953 40.2969C179.609 40.401 179.271 40.4531 178.938 40.4531C178.406 40.4531 177.932 40.3802 177.516 40.2344C177.109 40.0885 176.792 39.9115 176.562 39.7031C176.333 39.4948 176.146 39.2552 176 38.9844C175.854 38.7031 175.755 38.4479 175.703 38.2188C175.661 37.9896 175.641 37.7604 175.641 37.5312C175.641 36.8333 175.755 36.2448 175.984 35.7656C176.224 35.2865 176.661 34.8385 177.297 34.4219C177.943 34.0052 178.734 33.6354 179.672 33.3125C180.609 32.9896 181.87 32.625 183.453 32.2188V30.0469C183.453 28.9948 183.219 28.2083 182.75 27.6875C182.292 27.1667 181.672 26.9062 180.891 26.9062C180.193 26.9062 179.604 27.0469 179.125 27.3281C178.656 27.599 178.37 27.9167 178.266 28.2812C179.286 28.4375 179.797 28.9948 179.797 29.9531C179.797 30.3906 179.641 30.776 179.328 31.1094C179.016 31.4427 178.578 31.6094 178.016 31.6094C177.547 31.6094 177.13 31.4479 176.766 31.125C176.401 30.7917 176.219 30.3281 176.219 29.7344ZM183.453 36.4844V33.2188C182.495 33.4375 181.703 33.6771 181.078 33.9375C180.453 34.1875 179.974 34.4635 179.641 34.7656C179.318 35.0677 179.094 35.3802 178.969 35.7031C178.844 36.0156 178.781 36.3802 178.781 36.7969C178.781 37.3177 178.932 37.7292 179.234 38.0312C179.547 38.3229 179.927 38.4688 180.375 38.4688C181.417 38.4688 182.443 37.8073 183.453 36.4844ZM190.969 27.1406C192.99 26.9323 194.75 26.5052 196.25 25.8594C196.51 25.9635 196.693 26.099 196.797 26.2656V28.9531C197.182 28.224 197.755 27.5156 198.516 26.8281C199.286 26.1406 200.089 25.7969 200.922 25.7969C201.547 25.7969 202.052 25.9844 202.438 26.3594C202.833 26.724 203.031 27.2292 203.031 27.875C203.031 28.4896 202.849 28.9688 202.484 29.3125C202.12 29.6562 201.661 29.8281 201.109 29.8281C200.599 29.8281 200.177 29.6667 199.844 29.3438C199.521 29.0104 199.344 28.5729 199.312 28.0312C198.875 28.2188 198.375 28.6354 197.812 29.2812C197.26 29.9271 196.922 30.5677 196.797 31.2031C196.797 33.526 196.839 35.7448 196.922 37.8594C196.932 38.1302 197.031 38.3646 197.219 38.5625C197.406 38.75 197.682 38.8958 198.047 39C198.411 39.1042 198.714 39.1823 198.953 39.2344C199.193 39.276 199.505 39.3177 199.891 39.3594C199.953 39.4844 199.984 39.6146 199.984 39.75C199.984 39.8542 199.953 39.9688 199.891 40.0938C198.328 40.0312 196.781 40 195.25 40C193.979 40 192.656 40.0312 191.281 40.0938C191.24 39.9271 191.219 39.8125 191.219 39.75C191.219 39.6979 191.24 39.5677 191.281 39.3594C191.625 39.3177 191.906 39.276 192.125 39.2344C192.344 39.1823 192.615 39.1042 192.938 39C193.26 38.8958 193.505 38.75 193.672 38.5625C193.839 38.3646 193.927 38.1302 193.938 37.8594C193.979 36.8281 194 35.5781 194 34.1094C194 33.6198 193.995 32.7865 193.984 31.6094C193.974 30.4323 193.969 29.401 193.969 28.5156C193.375 28.151 192.375 27.9375 190.969 27.875C190.927 27.7083 190.906 27.5781 190.906 27.4844C190.906 27.4219 190.927 27.3073 190.969 27.1406Z" fill="#408A7E"/>
<path d="M222 33.1317H217V37.7984C217 38.0459 216.895 38.2833 216.707 38.4583C216.52 38.6334 216.265 38.7317 216 38.7317C215.735 38.7317 215.48 38.6334 215.293 38.4583C215.105 38.2833 215 38.0459 215 37.7984V33.1317H210C209.735 33.1317 209.48 33.0334 209.293 32.8583C209.105 32.6833 209 32.4459 209 32.1984C209 31.9508 209.105 31.7134 209.293 31.5384C209.48 31.3634 209.735 31.265 210 31.265H215V26.5984C215 26.3508 215.105 26.1134 215.293 25.9384C215.48 25.7634 215.735 25.665 216 25.665C216.265 25.665 216.52 25.7634 216.707 25.9384C216.895 26.1134 217 26.3508 217 26.5984V31.265H222C222.265 31.265 222.52 31.3634 222.707 31.5384C222.895 31.7134 223 31.9508 223 32.1984C223 32.4459 222.895 32.6833 222.707 32.8583C222.52 33.0334 222.265 33.1317 222 33.1317Z" fill="#408A7E"/>
<defs>
<clipPath id="clip0_464_3">
<rect width="60" height="56" fill="white"/>
</clipPath>
</defs>
</svg>
